<?xml version="1.0" standalone="no"?>
<!DOCTYPE svg PUBLIC "-//W3C//DTD SVG 20010904//EN"
 "http://www.w3.org/TR/2001/REC-SVG-20010904/DTD/svg10.dtd">
<svg version="1.0" xmlns="http://www.w3.org/2000/svg"
 width="700.000000pt" height="700.000000pt" viewBox="0 0 700.000000 700.000000"
 preserveAspectRatio="xMidYMid meet">
<metadata>
Created by potrace 1.14, written by Peter Selinger 2001-2017
</metadata>
<g transform="translate(0.000000,700.000000) scale(0.100000,-0.100000)"
fill="#000000" stroke="none">
<path d="M1767 6524 c-2 -2 -32 -6 -67 -9 -36 -3 -116 -17 -179 -31 -565 -126
-1042 -521 -1310 -1084 -69 -145 -145 -372 -166 -494 -2 -17 -7 -42 -9 -56
-27 -148 -34 -245 -31 -430 2 -96 5 -184 8 -195 2 -11 8 -42 11 -70 19 -134
79 -342 146 -510 32 -81 124 -274 157 -330 176 -299 275 -442 462 -670 212
-259 516 -572 786 -810 37 -33 73 -65 79 -70 6 -6 40 -35 76 -65 35 -30 73
-63 85 -73 47 -43 361 -292 495 -393 80 -60 147 -111 150 -114 3 -3 13 -9 22
-15 9 -5 74 -51 145 -101 315 -225 759 -507 823 -524 43 -11 102 -5 143 17 68
34 332 202 534 339 246 166 374 258 602 433 90 69 175 135 190 146 62 47 343
282 401 335 9 8 52 47 96 85 193 171 512 490 654 655 12 14 32 37 45 52 13 14
70 84 127 155 400 496 653 1000 729 1453 7 41 14 84 16 95 8 48 10 386 2 450
-17 137 -20 160 -40 244 -11 48 -22 95 -25 107 -6 30 -67 212 -90 265 -35 83
-141 284 -184 349 -200 301 -458 530 -765 680 -107 52 -256 111 -318 125 -135
30 -216 45 -278 52 -130 13 -371 7 -470 -12 -13 -3 -51 -10 -84 -16 -98 -18
-292 -86 -410 -143 -319 -156 -596 -405 -790 -711 -25 -38 -40 -54 -43 -45 -5
15 -97 152 -134 199 -71 92 -220 245 -318 327 -225 188 -597 355 -865 389 -11
2 -43 6 -70 10 -48 7 -332 14 -338 9z"/>
</g>
</svg>
